<?xml version="1.0" standalone="no"?>
<!DOCTYPE svg PUBLIC "-//W3C//DTD SVG 20010904//EN"
 "http://www.w3.org/TR/2001/REC-SVG-20010904/DTD/svg10.dtd">
<svg version="1.0" xmlns="http://www.w3.org/2000/svg"
 width="512.000000pt" height="512.000000pt" viewBox="0 0 512.000000 512.000000"
 preserveAspectRatio="xMidYMid meet">

<g transform="translate(0.000000,512.000000) scale(0.100000,-0.100000)"
fill="#000000" stroke="none">
<path d="M2363 4988 c-54 -28 -118 -62 -142 -75 -37 -19 -60 -23 -132 -23
-195 0 -324 -39 -388 -117 -15 -18 -53 -91 -85 -161 -62 -135 -80 -162 -136
-194 -49 -28 -108 -104 -125 -162 -8 -27 -15 -80 -15 -117 0 -57 -4 -72 -25
-97 -42 -50 -55 -94 -55 -187 0 -51 -6 -99 -14 -120 -23 -55 -24 -120 -2 -150
13 -18 14 -15 9 27 -3 26 -2 59 2 75 12 49 43 -97 40 -194 -2 -79 -4 -85 -42
-135 -81 -108 -91 -159 -48 -263 14 -35 25 -80 25 -108 0 -57 -14 -54 -32 6
l-13 42 -3 -48 c-5 -72 20 -114 93 -158 65 -39 75 -57 51 -94 -16 -25 -16 -25
14 -25 17 0 41 7 55 16 22 14 25 14 44 -5 26 -26 60 -34 110 -27 39 5 42 4 55
-27 15 -36 33 -54 89 -85 24 -14 37 -17 37 -9 1 7 7 1 15 -13 13 -24 13 -23 9
20 -3 41 -2 39 15 -21 26 -95 62 -168 138 -282 38 -55 72 -106 77 -112 9 -12
-19 -170 -34 -195 -6 -10 -25 -6 -77 14 -37 14 -73 26 -79 26 -13 0 -68 -58
-85 -90 -7 -14 -20 -50 -30 -80 -19 -63 2 -55 -223 -85 -150 -21 -292 -56
-370 -94 -75 -35 -146 -95 -146 -123 0 -18 6 -15 43 18 23 22 58 49 78 61 66
41 216 82 392 108 239 34 235 34 287 -2 46 -32 158 -144 222 -223 l37 -45 23
21 c154 135 224 198 281 253 l67 66 54 -28 c33 -17 65 -45 85 -72 22 -31 48
-51 88 -70 38 -17 88 -56 153 -118 52 -51 121 -110 152 -132 54 -38 61 -47
109 -155 58 -128 253 -536 379 -792 48 -99 88 -168 96 -168 8 0 14 2 14 5 0 2
-84 177 -186 387 -290 597 -322 670 -339 785 -28 182 -20 261 28 287 18 9 44
24 58 33 25 16 27 15 123 -56 61 -45 102 -69 108 -63 5 5 -11 59 -44 141 l-52
132 18 33 c17 32 21 34 104 45 142 20 324 25 365 12 52 -17 91 -68 156 -200
31 -64 73 -142 94 -173 62 -97 88 -156 152 -350 57 -173 75 -209 75 -153 0 22
-94 308 -125 380 -9 22 -41 78 -70 126 -29 47 -75 132 -102 190 -85 181 -143
225 -293 222 -47 -1 -134 -9 -195 -17 -60 -8 -111 -13 -114 -11 -13 14 184
305 278 408 108 120 113 133 118 383 l5 202 43 36 c45 37 59 67 70 148 4 34
20 66 58 120 96 135 92 123 93 233 0 55 4 114 8 131 6 28 1 39 -42 90 -69 85
-69 87 -1 49 33 -19 64 -35 67 -35 3 0 -20 23 -51 51 -32 28 -68 70 -81 92
-36 62 -66 163 -66 222 0 57 -15 111 -37 137 -8 9 -19 48 -24 87 -9 76 -19
102 -52 139 l-20 22 22 0 c12 0 33 -11 46 -25 29 -28 31 -25 9 16 -18 36 -73
62 -110 53 -41 -10 -100 15 -134 57 -20 25 -56 50 -108 74 -42 20 -98 48 -123
61 -26 13 -60 24 -75 24 -22 0 -35 9 -53 35 -13 19 -26 35 -30 35 -3 0 -23 15
-44 34 -38 34 -61 42 -232 86 -142 37 -257 60 -297 60 -26 0 -68 -16 -135 -52z
m1393 -1168 c32 -117 35 -235 12 -405 -10 -66 -20 -146 -23 -177 l-6 -58 -37
0 c-48 0 -154 -25 -195 -46 -40 -20 -98 -74 -91 -86 3 -4 13 -4 23 2 38 20
114 30 177 24 l65 -7 -22 -23 c-20 -21 -23 -22 -34 -7 -20 27 -113 29 -171 4
-53 -24 -86 -49 -79 -61 3 -4 29 -8 60 -9 55 -1 84 14 97 50 4 11 15 9 52 -10
l46 -24 0 -152 c0 -158 -11 -249 -37 -300 -9 -16 -47 -64 -86 -105 -77 -83
-163 -207 -283 -409 -134 -226 -242 -311 -407 -319 -159 -7 -406 83 -547 200
-178 148 -404 450 -458 613 -23 68 -42 191 -42 270 l0 53 -56 29 c-101 51
-157 129 -189 265 -20 87 -19 230 3 293 17 48 69 125 85 125 4 0 13 -12 19
-26 7 -14 29 -34 50 -45 22 -11 38 -27 38 -37 0 -27 26 -58 65 -76 22 -11 35
-24 35 -36 0 -10 20 -35 44 -55 l45 -36 -6 -107 c-5 -93 -2 -114 16 -163 12
-31 30 -64 40 -73 17 -16 18 -14 23 46 4 39 22 106 48 176 35 93 42 122 38
162 l-5 48 86 22 c112 28 170 61 238 134 71 77 114 166 121 252 5 62 5 64 23
48 11 -10 19 -26 19 -36 0 -11 5 -16 10 -13 6 3 10 23 10 45 l0 38 63 -34
c106 -57 174 -43 278 57 62 59 136 111 194 134 l40 17 -47 -49 c-27 -27 -48
-51 -48 -54 0 -3 25 -4 55 -1 33 3 60 0 69 -7 7 -6 40 -14 72 -17 63 -6 130
11 169 44 l20 17 -20 -25 c-11 -14 -33 -40 -50 -59 -24 -27 -26 -33 -10 -27
11 4 63 19 115 33 52 14 107 31 121 39 35 18 75 66 91 110 l13 36 18 -59 c9
-32 29 -101 43 -153z m-296 -810 c0 -5 -4 -10 -10 -10 -5 0 -10 5 -10 10 0 6
5 10 10 10 6 0 10 -4 10 -10z m-1398 -938 c21 -26 72 -83 115 -126 43 -44 70
-77 60 -73 -9 4 -66 21 -125 38 -59 17 -112 34 -118 37 -10 7 14 172 26 172 3
-1 22 -22 42 -48z m-182 -121 c41 -15 156 -52 255 -81 99 -29 186 -56 194 -60
9 -5 -38 -53 -155 -159 l-169 -151 -50 57 c-77 90 -139 149 -200 190 -54 35
-56 39 -50 70 3 18 12 48 20 67 15 35 62 96 74 96 3 0 40 -13 81 -29z m1329
-158 c18 -43 36 -85 39 -92 4 -12 -88 51 -132 90 -8 7 40 76 54 78 3 1 21 -34
39 -76z m-609 -94 c76 -24 253 -37 297 -21 l30 10 6 -137 c3 -75 9 -145 13
-155 12 -30 -70 32 -184 140 -54 50 -120 103 -147 117 -41 20 -100 67 -84 67
2 0 33 -10 69 -21z"/>
<path d="M1569 3473 c-13 -16 -12 -17 4 -4 9 7 17 15 17 17 0 8 -8 3 -21 -13z"/>
<path d="M2665 3202 c-16 -11 -36 -26 -43 -35 -12 -14 -8 -16 35 -22 26 -4
142 -25 258 -46 115 -21 211 -36 214 -33 3 2 1 17 -5 32 -6 18 -25 35 -54 49
-55 27 -270 66 -325 58 -29 -3 -35 -2 -20 4 19 9 18 10 -5 10 -14 1 -38 -7
-55 -17z"/>
<path d="M1560 3086 c0 -2 8 -10 18 -17 15 -13 16 -12 3 4 -13 16 -21 21 -21
13z"/>
<path d="M2705 3076 c-62 -21 -126 -52 -119 -59 8 -7 62 2 87 15 14 7 24 5 38
-8 26 -24 74 -22 102 4 29 27 38 27 71 1 26 -20 26 -22 10 -40 -16 -18 -16
-19 2 -19 10 0 36 -3 57 -7 l39 -6 -54 52 -53 53 40 -7 c22 -4 47 -12 55 -19
34 -29 43 -27 14 3 -18 19 -48 36 -70 41 -56 13 -172 11 -219 -4z m55 -26 c0
-5 -7 -10 -15 -10 -8 0 -15 5 -15 10 0 6 7 10 15 10 8 0 15 -4 15 -10z"/>
<path d="M2885 2617 c-20 -48 -19 -73 7 -127 12 -25 22 -48 22 -52 1 -3 5 -10
10 -15 5 -5 6 -2 1 6 -6 10 -2 12 16 6 l24 -7 -23 17 c-47 34 -65 109 -42 171
16 41 2 42 -15 1z"/>
<path d="M2765 2500 c-3 -6 1 -7 9 -4 18 7 21 14 7 14 -6 0 -13 -4 -16 -10z"/>
<path d="M3000 2430 c-28 -6 -21 -7 35 -8 47 0 64 2 50 8 -23 10 -37 10 -85 0z"/>
<path d="M2640 2403 c-34 -17 -60 -57 -75 -113 -6 -24 -6 -24 18 5 l25 29 83
-26 c87 -27 269 -100 328 -132 27 -14 32 -22 28 -43 -4 -24 -3 -25 29 -20 47
8 89 40 119 91 43 73 67 89 124 84 44 -4 50 -3 60 19 26 58 -5 109 -57 96 -17
-4 -23 -2 -18 5 4 6 -6 5 -21 -3 -32 -17 -83 -19 -133 -6 -19 6 -98 12 -175
15 -77 3 -176 8 -220 11 -66 5 -86 3 -115 -12z m235 -88 c72 -9 148 -20 170
-25 22 -5 70 -10 108 -10 91 0 85 -16 -9 -22 -41 -3 -80 -10 -86 -16 -8 -8 -1
-10 28 -7 l39 5 -44 -21 c-39 -18 -51 -20 -95 -11 -28 6 -98 33 -156 60 -58
27 -116 54 -130 61 -24 11 -23 11 10 6 19 -2 94 -12 165 -20z"/>
<path d="M3727 2737 c-12 -196 -35 -253 -157 -382 -59 -62 -197 -252 -188
-260 2 -1 37 2 78 7 126 16 226 7 289 -27 71 -39 101 -77 171 -222 33 -67 74
-145 93 -175 57 -89 89 -157 138 -298 32 -92 48 -128 52 -115 47 152 56 490
19 688 -49 261 -158 505 -315 707 -66 84 -159 190 -167 190 -4 0 -10 -51 -13
-113z"/>
<path d="M1245 2615 c-170 -226 -286 -554 -302 -854 l-6 -113 54 35 c30 20 84
48 122 62 75 28 264 68 404 86 l92 11 15 46 c33 95 115 192 163 192 11 0 37
-7 56 -15 56 -23 64 -20 71 29 7 41 4 48 -58 139 -35 52 -81 130 -101 173 -20
44 -40 86 -44 94 -4 8 -23 24 -41 35 -18 11 -51 36 -72 57 -33 31 -45 36 -88
36 -28 1 -56 4 -63 9 -6 4 -50 8 -96 8 -81 0 -84 -1 -106 -30z"/>
</g>
</svg>
